# xmcd
#
# Track frame offsets:
# 150
# 9340
# 30831
# 50677
# 66408
# 73081
# 91919
# 124341
# 141978
# 175012
# 194230
# 200007
# 216922
# 231807
# 247168
# 274317
# 311927
# 339064
#
# Disc length: 4673 seconds
#
# Revision: 0
# Processed by: cddbd v1.5.2PL0 Copyright (c) Steve Scherf et al.
# Submitted via: Audion 3.0.2 (http://www.panic.com/audion/)
#
DISCID=1b123f12
DTITLE=Art of Noise - Invisible Silence
DYEAR=1900
DGENRE=
TTITLE0=a
TTITLE1=a
TTITLE2=a
TTITLE3=a
TTITLE4=a
TTITLE5=a
TTITLE6=a
TTITLE7=a
TTITLE8=a
TTITLE9=a
TTITLE10=a
TTITLE11=Hoops and Mallets
TTITLE12=a
TTITLE13=a
TTITLE14=a
TTITLE15=a
TTITLE16=a
TTITLE17=a
EXTD=
EXTT0=
EXTT1=
EXTT2=
EXTT3=
EXTT4=
EXTT5=
EXTT6=
EXTT7=
EXTT8=
EXTT9=
EXTT10=
EXTT11=
EXTT12=
EXTT13=
EXTT14=
EXTT15=
EXTT16=
EXTT17=
PLAYORDER=
